<svg xmlns="http://www.w3.org/2000/svg" width="216" height="48" viewBox="0 0 216 48" role="img" aria-label="Nyuchi Docs">
<g transform="translate(0,6) scale(0.75)"><defs><clipPath id="eba13bdbb2"><path d="M 0.488281 0 L 47.507812 0 L 47.507812 47.019531 L 0.488281 47.019531 Z M 0.488281 0 " clip-rule="nonzero"/></clipPath></defs><g clip-path="url(#eba13bdbb2)"><path fill="#ffffff" d="M 0.488281 0 L 47.511719 0 L 47.511719 47.019531 L 0.488281 47.019531 Z M 0.488281 0 " fill-opacity="1" fill-rule="nonzero"/><path fill="#5d4037" d="M 0.488281 0 L 47.511719 0 L 47.511719 47.019531 L 0.488281 47.019531 Z M 0.488281 0 " fill-opacity="1" fill-rule="nonzero"/></g><path fill="#faf9f5" d="M 25.039062 18.011719 C 25.15625 17.730469 25.917969 15.890625 26.730469 14.558594 C 28.441406 11.757812 31.179688 9.777344 31.644531 9.539062 C 32.171875 9.265625 33.441406 8.238281 35.105469 8.507812 C 37.265625 8.859375 37.941406 12.203125 37.9375 13.25 C 37.921875 17.792969 33.636719 20.445312 33.171875 20.78125 C 32.222656 21.464844 32.164062 21.367188 32.085938 21.429688 C 31.664062 21.753906 29.464844 22.636719 29.425781 22.648438 C 27.367188 23.179688 27.359375 23.152344 27.183594 23.207031 C 26.605469 23.390625 23.402344 23.609375 23.238281 23.378906 C 23.171875 23.285156 23.714844 21.679688 23.765625 21.53125 C 23.996094 20.847656 23.949219 20.835938 23.96875 20.777344 C 24.769531 18.496094 24.921875 18.335938 25.039062 18.011719 Z M 25.039062 18.011719 " fill-opacity="1" fill-rule="evenodd"/><path fill="#faf9f5" d="M 17.269531 27.769531 C 15.246094 28.710938 11.316406 29.113281 10.53125 26.933594 C 10.46875 26.757812 10.238281 26.121094 10.945312 24.660156 C 11.273438 23.980469 12.867188 22.078125 12.863281 22.441406 C 12.863281 22.445312 11.996094 23.960938 12.703125 24.199219 C 13.308594 24.402344 14.609375 23.210938 14.785156 21.585938 C 14.851562 20.960938 14.796875 20.925781 14.75 20.941406 C 14.71875 20.953125 14.097656 21.816406 13.429688 21.75 C 12.574219 21.667969 13.929688 19.757812 14.785156 20.085938 C 15.285156 20.277344 16.003906 19.054688 17.894531 19.273438 C 21.5625 19.699219 21.394531 25.839844 17.269531 27.769531 Z M 17.269531 27.769531 " fill-opacity="1" fill-rule="evenodd"/><path fill="#faf9f5" d="M 26.140625 26.378906 C 26.285156 25.878906 26.292969 25.253906 26.679688 25.476562 C 28.761719 26.6875 29.085938 26.878906 28.855469 27.535156 C 28.777344 27.753906 28.402344 28.820312 27.71875 30.191406 C 26.917969 31.804688 25.226562 33.921875 24.261719 34.417969 C 24.09375 34.503906 23.339844 35.066406 22.902344 35.132812 C 22.398438 35.203125 20.808594 33.839844 20.261719 33.339844 C 20.03125 33.128906 20.472656 32.996094 20.738281 32.863281 C 20.835938 32.816406 21.996094 32.074219 22 32.070312 C 24.34375 30.214844 25.191406 29.085938 26.140625 26.378906 Z M 26.140625 26.378906 " fill-opacity="1" fill-rule="evenodd"/><path fill="#faf9f5" d="M 24.15625 26.816406 C 23.960938 27.292969 22.886719 29.894531 19.632812 31.402344 C 19.082031 31.660156 19.089844 31.117188 18.804688 30.4375 C 18.722656 30.242188 18.441406 28.671875 18.675781 28.566406 C 19.054688 28.394531 19.058594 28.425781 19.4375 28.242188 C 20.964844 27.511719 21.695312 25.425781 21.796875 25.128906 C 21.945312 24.703125 22.296875 24.863281 23.042969 24.78125 C 23.132812 24.769531 24.699219 24.800781 24.777344 24.976562 C 24.789062 25 24.46875 26.203125 24.394531 26.328125 C 24.253906 26.566406 24.261719 26.5625 24.15625 26.816406 Z M 24.15625 26.816406 " fill-opacity="1" fill-rule="evenodd"/><path fill="#faf9f5" d="M 30.34375 30.566406 C 30.371094 30.488281 30.660156 29.730469 30.675781 29.601562 C 30.777344 28.734375 31.136719 29.65625 31.445312 30.328125 C 32.363281 32.332031 31.851562 35.300781 28.839844 36.136719 C 27.472656 36.515625 26.109375 36.289062 25.925781 36.222656 C 25.695312 36.140625 26.035156 36.144531 27.628906 34.625 C 29.015625 33.304688 30.050781 31.375 30.34375 30.566406 Z M 30.34375 30.566406 " fill-opacity="1" fill-rule="evenodd"/><path fill="#faf9f5" d="M 16.457031 17.097656 C 16.523438 17.039062 16.613281 17.046875 16.632812 16.535156 C 16.699219 14.667969 16.527344 13.765625 15.566406 11.753906 C 15.203125 10.988281 14.324219 10.996094 13.960938 10.25 C 13.3125 8.945312 15.003906 8.324219 15.398438 9.882812 C 15.640625 10.835938 15.671875 10.816406 15.691406 10.898438 C 15.988281 12.109375 17.394531 13.191406 17.054688 16.675781 C 17.035156 16.851562 16.859375 18.667969 16.765625 18.894531 C 16.65625 19.160156 16.644531 18.859375 16.554688 18.589844 C 15.703125 16.035156 14.121094 14.804688 13.816406 14.566406 C 12.175781 13.289062 11.296875 13.515625 11.210938 13.496094 C 9.855469 13.179688 9.816406 12.363281 10.277344 12.253906 C 11.148438 12.042969 11.101562 12.378906 12.976562 13.433594 C 15.453125 14.828125 15.730469 15.769531 16.457031 17.097656 Z M 16.457031 17.097656 " fill-opacity="1" fill-rule="evenodd"/><path fill="#faf9f5" d="M 33.1875 36.789062 C 32.910156 36.59375 31.21875 35.578125 31.140625 35.527344 C 31.109375 35.503906 30.988281 35.417969 31.335938 35.089844 C 31.765625 34.683594 31.722656 34.074219 32.003906 34.367188 C 32.988281 35.386719 33.039062 35.328125 34.015625 36.355469 C 35 37.382812 36.804688 39 35.828125 38.421875 C 35.613281 38.296875 34.09375 37.398438 33.1875 36.789062 Z M 33.1875 36.789062 " fill-opacity="1" fill-rule="evenodd"/></g>
<text x="52" y="31" font-family="Noto Sans, system-ui, -apple-system, Segoe UI, Roboto, sans-serif" font-size="21" font-weight="700" letter-spacing="-0.015em"><tspan fill="#f0efe9">Nyuchi </tspan><tspan fill="#ffd740">Docs</tspan></text>
</svg>
